<svg xmlns="http://www.w3.org/2000/svg" width="82" height="22" fill="none"><path d="M71.214 13.387a3.763 3.763 0 0 1 3.577-2.585 3.761 3.761 0 0 1 3.576 2.585h-7.153Zm10.648 2.567a7.13 7.13 0 0 0 .1-2.135v-.004a6.38 6.38 0 0 0-.059-.428c-.524-3.161-3.15-5.654-6.38-5.985a7.628 7.628 0 0 0-.732-.037 6.876 6.876 0 0 0-.732.037c-3.23.331-5.856 2.824-6.381 5.985a6.444 6.444 0 0 0-.06.428v.004a7.737 7.737 0 0 0-.037.731 6.979 6.979 0 0 0 .14 1.404c.617 3.046 3.191 5.42 6.338 5.743a7.524 7.524 0 0 0 .732.037c.083 0 .166-.002.249-.004l.173-.008c.01 0 .02 0 .03-.002a6.704 6.704 0 0 0 .416-.038c.072-.008.143-.019.215-.029a7.26 7.26 0 0 0 2.783-1.038l.164-.108a5.833 5.833 0 0 0 .185-.13l.013-.008a7.56 7.56 0 0 0 .138-.103c.014-.01.028-.02.04-.031l.108-.084a6.977 6.977 0 0 0 .66-.6l.021-.02a6.36 6.36 0 0 0 .135-.143l.015-.017c.046-.05.09-.102.135-.153.047-.056.094-.11.139-.167l.127-.16a7.222 7.222 0 0 0 .136-.186l-2.814-1.988a3.76 3.76 0 0 1-3.068 1.58c-1.578 0-2.93-.97-3.488-2.343h10.56Z" fill="#192232"></path><path d="M67.288 14.69v.015a3.994 3.994 0 0 0-1.2-1.038c-1.126-.653-2.517-.888-3.75-1.07-.472-.072-.912-.14-1.286-.227-.725-.167-1.205-.405-1.205-.87 0-1.044 1.18-1.269 1.992-1.269.68 0 2.278.246 2.278 1.134h3.485c0-.69-.13-1.813-1.468-2.806-1.074-.783-2.542-1.194-4.324-1.194-3.171 0-5.766 1.989-5.766 4.444 0 1.07.522 1.957 1.304 2.526.094.068.193.133.295.192.996.626 2.175.915 3.276 1.045 1.153.157 3.302.471 3.302 1.75 0 1.018-1.493 1.404-2.254 1.404-1.153 0-2.333-.65-2.333-1.834H55.81c0 .888.235 1.912 1.52 3.218.499.497 1.14.854 1.832 1.114l.107.039c.812.314 1.73.471 2.7.471a7.62 7.62 0 0 0 2.332-.365c.707-.21 1.363-.522 1.913-.939a4.475 4.475 0 0 0 1.337-1.384 4.008 4.008 0 0 0 .373-.869c.022-.074.04-.149.056-.224l.003-.01c.016-.077.03-.154.04-.232l.002.007c.033-.205.05-.415.05-.627 0-.874-.286-1.694-.786-2.4Z" fill="#192232"></path><path d="M56.408 13.575v7.687h-4.063v-6.855a3.117 3.117 0 0 0-3.122-3.113 3.118 3.118 0 0 0-3.117 3.313v6.655h-4.061V7.742h4.061v1.045a6.26 6.26 0 0 1 4.03-1.462c.795 0 1.554.147 2.254.416a6.251 6.251 0 0 1 4.018 5.834Z" fill="#192232"></path><path d="M31.538 13.387a3.763 3.763 0 0 1 3.576-2.585 3.761 3.761 0 0 1 3.576 2.585h-7.152Zm10.647 2.567a7.123 7.123 0 0 0 .1-2.135v-.004a6.511 6.511 0 0 0-.058-.428c-.525-3.161-3.151-5.654-6.38-5.985a7.622 7.622 0 0 0-.733-.037 6.873 6.873 0 0 0-.732.037c-3.23.331-5.856 2.824-6.381 5.985a6.38 6.38 0 0 0-.06.428v.004a7.737 7.737 0 0 0-.037.731 6.873 6.873 0 0 0 .141 1.404c.616 3.046 3.19 5.42 6.337 5.743a7.528 7.528 0 0 0 .732.037c.083 0 .166-.002.25-.004l.172-.008c.01 0 .02 0 .03-.002a6.737 6.737 0 0 0 .417-.038c.071-.008.142-.019.214-.029a7.26 7.26 0 0 0 3.133-1.275l.012-.009c.047-.033.093-.068.139-.103l.04-.031.107-.084a7.017 7.017 0 0 0 .66-.6l.022-.02c.045-.047.09-.094.134-.143l.015-.017a6.452 6.452 0 0 0 .274-.32l.127-.16c.003-.005.005-.01.01-.014.042-.057.085-.115.126-.173l-2.814-1.987a3.76 3.76 0 0 1-3.068 1.58c-1.578 0-2.93-.97-3.487-2.343h10.558Z" fill="#192232"></path><path d="M27.614 14.69v.015a3.993 3.993 0 0 0-1.2-1.038c-1.126-.653-2.517-.888-3.75-1.07-.472-.072-.911-.14-1.286-.227-.725-.167-1.204-.405-1.204-.87 0-1.044 1.179-1.269 1.99-1.269.681 0 2.28.246 2.28 1.134h3.484c0-.69-.13-1.813-1.467-2.806-1.075-.783-2.543-1.194-4.324-1.194-3.172 0-5.767 1.989-5.767 4.444 0 1.07.522 1.957 1.304 2.526.094.068.193.133.295.192.996.626 2.175.915 3.277 1.045 1.152.157 3.301.471 3.301 1.75 0 1.018-1.493 1.404-2.254 1.404-1.152 0-2.333-.65-2.333-1.834h-3.825c0 .888.235 1.912 1.52 3.218.5.497 1.14.854 1.832 1.114l.107.039c.812.314 1.73.471 2.7.471a7.62 7.62 0 0 0 2.332-.365c.707-.21 1.363-.522 1.914-.939a4.474 4.474 0 0 0 1.336-1.384 4.009 4.009 0 0 0 .373-.869 3.009 3.009 0 0 0 .099-.466l.003.007c.032-.205.05-.415.05-.627 0-.874-.287-1.694-.787-2.4Z" fill="#192232"></path><path d="M8.7 7.53c.841.176 1.66.505 2.413.991l-2.495 2.965h-.001a3.394 3.394 0 0 0-4.006.899 3.366 3.366 0 0 0-.193 4.088l-2.496 2.965a7.164 7.164 0 0 1-.236-9.5l8.369-9.94 2.925 2.447L8.7 7.53Z" fill="#13BBB2"></path><path d="M12.724 19.171c-2.363 2.806-6.42 3.359-9.427 1.418l2.496-2.965a3.394 3.394 0 0 0 4.006-.899 3.367 3.367 0 0 0 .192-4.088l2.497-2.965a7.163 7.163 0 0 1 .236 9.499ZM80.826 8.32h.185c.105 0 .185-.031.185-.154 0-.087-.037-.148-.179-.148h-.191v.302Zm-.21.572V7.864h.413c.223 0 .396.086.396.295 0 .13-.105.216-.18.24.075.025.149.1.149.271 0 .062 0 .142.012.222h-.21a.89.89 0 0 1-.025-.215c0-.136-.03-.197-.179-.197h-.166v.412h-.21Zm-.402-.499c0 .456.334.838.797.838.5 0 .766-.37.766-.831 0-.462-.309-.838-.772-.838-.525 0-.791.413-.791.831m1.785 0c0 .567-.395 1.035-.988 1.035-.575 0-1.007-.444-1.007-1.035 0-.566.414-1.028 1.007-1.028s.988.474.988 1.028Z" fill="#192232"></path></svg>